<?xml version="1.0" encoding="utf-8"?>
<!-- Generator: Adobe Illustrator 25.4.1, SVG Export Plug-In . SVG Version: 6.00 Build 0)  -->
<svg version="1.1" id="Capa_1" xmlns="http://www.w3.org/2000/svg" xmlns:xlink="http://www.w3.org/1999/xlink" x="0px" y="0px"
	 viewBox="0 0 375.5 375.5" style="enable-background:new 0 0 375.5 375.5;" xml:space="preserve">
<style type="text/css">
	.st0{fill:#C8E1A9;}
	.st1{fill:none;}
</style>
<g id="Capa_2_00000011014621405787895260000001616829687360485250_">
	<g id="objects">
		<path class="st0" d="M256.6,172.3l-3.3,26.6c-0.5,4.4-4.3,7.8-8.8,7.8h-43v111.1c-4.6,0.4-9.2,0.6-13.8,0.6c-10.2,0-20.4-1-30.4-3
			V206.7h-33.2c-3.1,0-5.5-2.5-5.5-5.5v-33.2c0-3.1,2.5-5.5,5.5-5.5h33.1v-49.9C157.3,81.9,182,57.1,212.5,57c0,0,0,0,0,0h38.6
			c3,0,5.5,2.5,5.5,5.5v33.3c0,3-2.5,5.5-5.5,5.5h-27.6c-12.2,0-22.1,10-22.1,22.2c0,0,0,0,0,0v38.8h46.4c4.9,0,8.9,4,8.8,8.9
			C256.7,171.6,256.7,171.9,256.6,172.3z"/>
		<rect class="st1" width="375.5" height="375.5"/>
	</g>
</g>
</svg>
