<?xml version="1.0" encoding="utf-8"?>
<!-- Generator: Adobe Illustrator 25.4.1, SVG Export Plug-In . SVG Version: 6.00 Build 0)  -->
<svg version="1.1" id="Capa_1" xmlns="http://www.w3.org/2000/svg" xmlns:xlink="http://www.w3.org/1999/xlink" x="0px" y="0px"
	 viewBox="0 0 375.5 375.5" style="enable-background:new 0 0 375.5 375.5;" xml:space="preserve">
<style type="text/css">
	.st0{fill:#C8E1A9;}
	.st1{fill:none;}
</style>
<g id="Capa_2_00000016759928525806952730000012630037809886767236_">
	<g id="objects">
		<path class="st0" d="M241.6,83.5H133.8c-27.8,0-50.3,22.5-50.3,50.3v107.8c0,27.8,22.5,50.3,50.3,50.3h107.8
			c27.8,0,50.3-22.5,50.3-50.3V133.8C291.9,106,269.4,83.5,241.6,83.5z M274,238c0,19.9-16.1,36-36,36H137.4
			c-19.9,0-35.9-16.1-35.9-36V137.4c0-19.8,16.1-35.9,35.9-35.9H238c19.9,0,36,16.1,36,35.9V238z"/>
		<path class="st0" d="M187.7,133.8c-29.8,0-53.9,24.1-53.9,53.9c0,29.8,24.1,53.9,53.9,53.9c29.8,0,53.9-24.1,53.9-53.9
			c0,0,0,0,0,0C241.6,158,217.5,133.8,187.7,133.8z M187.7,223.7c-19.8,0-35.9-16.1-35.9-35.9c0-19.8,16.1-35.9,35.9-35.9
			c19.8,0,35.9,16.1,35.9,35.9c0,0,0,0,0,0C223.6,207.6,207.6,223.6,187.7,223.7z"/>
		<circle class="st0" cx="245.2" cy="130.2" r="10.8"/>
		<rect class="st1" width="375.5" height="375.5"/>
	</g>
</g>
</svg>
