<?xml version="1.0" encoding="utf-8"?>
<!-- Generator: Adobe Illustrator 25.4.1, SVG Export Plug-In . SVG Version: 6.00 Build 0)  -->
<svg version="1.1" id="Capa_1" xmlns="http://www.w3.org/2000/svg" xmlns:xlink="http://www.w3.org/1999/xlink" x="0px" y="0px"
	 viewBox="0 0 375.5 375.5" style="enable-background:new 0 0 375.5 375.5;" xml:space="preserve">
<style type="text/css">
	.st0{fill:#C8E1A9;}
	.st1{fill:none;}
</style>
<g id="Capa_2_00000106143208820565265340000000631565272249013666_">
	<g id="objects">
		<path class="st0" d="M227.1,238.9v-98.4c0,0,11.1,18.5,51.2,19.6c2.1,0,3.9-1.6,3.9-3.8c0,0,0-0.1,0-0.1v-27.8
			c0-2.1-1.7-3.7-3.7-3.8c-31.1-1.8-45.9-25.6-47.4-47.5c-0.2-2-1.9-3.6-3.9-3.6h-31.7c-2.1,0-3.8,1.7-3.8,3.8l0,0v156.5
			c0,17-13,31.8-30,32.6c-17.4,0.9-32.2-12.5-33-29.9c-0.8-16.2,10.9-30.4,27-32.8c2.7-0.4,5.4-0.4,8.1-0.1c2.1,0.3,4-1.2,4.3-3.3
			c0-0.2,0-0.3,0-0.5V172c0-2-1.5-3.7-3.5-3.8c-4.1-0.3-8.2-0.2-12.2,0.3c-36.7,4.3-63,37.6-58.6,74.3c4.3,36.7,37.6,63,74.3,58.6
			c33.7-4,59.1-32.5,59.1-66.5"/>
		<rect class="st1" width="375.5" height="375.5"/>
	</g>
</g>
</svg>
