<?xml version="1.0" encoding="utf-8"?>
<!-- Generator: Adobe Illustrator 25.4.1, SVG Export Plug-In . SVG Version: 6.00 Build 0)  -->
<svg version="1.1" id="Layer_1" xmlns="http://www.w3.org/2000/svg" xmlns:xlink="http://www.w3.org/1999/xlink" x="0px" y="0px"
	 viewBox="0 0 64 64" style="enable-background:new 0 0 64 64;" xml:space="preserve">
<style type="text/css">
	.st0{fill:#C8E1A9;}
</style>
<path class="st0" d="M31.94,0c8.95,0,16.57,3.12,22.86,9.37c3.01,3.01,5.29,6.45,6.86,10.31C63.22,23.55,64,27.66,64,32
	c0,4.38-0.77,8.49-2.31,12.31c-1.54,3.83-3.82,7.21-6.83,10.14c-3.12,3.08-6.67,5.45-10.63,7.09C40.27,63.18,36.17,64,31.94,64
	s-8.28-0.81-12.14-2.43c-3.87-1.62-7.33-3.96-10.4-7.03s-5.4-6.52-7-10.37S0,36.27,0,32c0-4.23,0.81-8.3,2.43-12.2
	S6.4,12.4,9.49,9.31C15.58,3.11,23.07,0,31.94,0z M32.06,5.77c-7.31,0-13.47,2.55-18.46,7.66c-2.51,2.55-4.45,5.42-5.8,8.6
	C6.44,25.21,5.77,28.53,5.77,32c0,3.43,0.68,6.73,2.03,9.91c1.35,3.18,3.29,6.02,5.8,8.52c2.51,2.5,5.35,4.4,8.51,5.72
	c3.16,1.31,6.48,1.97,9.94,1.97c3.43,0,6.75-0.67,9.97-2c3.22-1.33,6.12-3.26,8.71-5.77c4.99-4.88,7.48-10.99,7.48-18.34
	c0-3.54-0.65-6.89-1.94-10.06c-1.29-3.16-3.18-5.98-5.65-8.46C45.48,8.34,39.29,5.77,32.06,5.77z M31.66,26.69l-4.29,2.23
	c-0.46-0.95-1.02-1.62-1.68-2c-0.67-0.38-1.29-0.57-1.86-0.57c-2.86,0-4.29,1.89-4.29,5.66c0,1.71,0.36,3.08,1.08,4.11
	c0.72,1.03,1.79,1.54,3.2,1.54c1.87,0,3.18-0.92,3.94-2.74l3.94,2c-0.84,1.56-2,2.79-3.49,3.69c-1.48,0.9-3.12,1.34-4.91,1.34
	c-2.86,0-5.16-0.88-6.91-2.63c-1.75-1.75-2.63-4.19-2.63-7.31c0-3.05,0.89-5.47,2.66-7.26c1.77-1.79,4.01-2.69,6.72-2.69
	C27.1,22.06,29.94,23.6,31.66,26.69z M50.11,26.69l-4.23,2.23c-0.46-0.95-1.02-1.62-1.69-2c-0.67-0.38-1.31-0.57-1.91-0.57
	C39.43,26.35,38,28.23,38,32c0,1.71,0.36,3.08,1.09,4.11c0.72,1.03,1.79,1.54,3.2,1.54c1.87,0,3.18-0.92,3.94-2.74l4,2
	c-0.88,1.56-2.06,2.79-3.54,3.69c-1.49,0.9-3.1,1.34-4.86,1.34c-2.9,0-5.21-0.88-6.94-2.63c-1.74-1.75-2.6-4.19-2.6-7.31
	c0-3.05,0.88-5.47,2.66-7.26c1.77-1.79,4.01-2.69,6.71-2.69C45.62,22.06,48.44,23.6,50.11,26.69z"/>
</svg>
