<?xml version="1.0" encoding="utf-8"?>
<!-- Generator: Adobe Illustrator 25.4.1, SVG Export Plug-In . SVG Version: 6.00 Build 0)  -->
<svg version="1.1" id="Layer_1" xmlns="http://www.w3.org/2000/svg" xmlns:xlink="http://www.w3.org/1999/xlink" x="0px" y="0px"
	 viewBox="0 0 64 64" style="enable-background:new 0 0 64 64;" xml:space="preserve">
<style type="text/css">
	.st0{fill:#C8E1A9;}
</style>
<g>
	<path class="st0" d="M31.94,0c8.99,0,16.57,3.09,22.74,9.26C60.89,15.43,64,23.01,64,32c0,8.99-3.05,16.48-9.15,22.46
		C48.38,60.82,40.74,64,31.94,64c-8.69,0-16.19-3.16-22.51-9.49C3.14,48.23,0,40.72,0,32c0-8.76,3.14-16.34,9.43-22.74
		C15.6,3.09,23.1,0,31.94,0z M7.2,23.37C6.25,26,5.77,28.88,5.77,32c0,7.09,2.59,13.22,7.77,18.4c5.22,5.14,11.39,7.72,18.51,7.72
		c7.2,0,13.41-2.61,18.63-7.83c1.87-1.79,3.33-3.66,4.4-5.6l-12.06-5.37c-0.42,2.02-1.44,3.67-3.06,4.94
		c-1.62,1.28-3.53,2.01-5.74,2.2v4.92h-3.71v-4.92c-3.54-0.04-6.78-1.31-9.71-3.83l4.4-4.46c2.09,1.94,4.48,2.91,7.14,2.91
		c1.1,0,2.05-0.25,2.83-0.74c0.78-0.49,1.17-1.31,1.17-2.46c0-0.8-0.29-1.45-0.86-1.94l-3.08-1.31l-3.77-1.72l-5.09-2.23L7.2,23.37z
		 M32.06,5.71c-7.28,0-13.43,2.57-18.46,7.71c-1.26,1.26-2.44,2.69-3.54,4.29l12.23,5.49c0.53-1.68,1.54-3.02,3.03-4.03
		c1.48-1.01,3.22-1.57,5.2-1.69v-4.91h3.72v4.91c2.93,0.15,5.6,1.14,8,2.97l-4.17,4.29c-1.79-1.26-3.62-1.89-5.49-1.89
		c-0.99,0-1.88,0.19-2.66,0.57c-0.78,0.38-1.17,1.03-1.17,1.94c0,0.27,0.1,0.53,0.28,0.8L33.09,28l2.8,1.26l5.14,2.28l16.4,7.31
		c0.53-2.25,0.8-4.53,0.8-6.86c0-7.35-2.55-13.54-7.66-18.57C45.51,8.28,39.33,5.71,32.06,5.71z"/>
</g>
</svg>
