<?xml version="1.0" encoding="utf-8"?>
<!-- Generator: Adobe Illustrator 25.4.1, SVG Export Plug-In . SVG Version: 6.00 Build 0)  -->
<svg version="1.1" id="Capa_1" xmlns="http://www.w3.org/2000/svg" xmlns:xlink="http://www.w3.org/1999/xlink" x="0px" y="0px"
	 viewBox="0 0 1043.84 283.84" style="enable-background:new 0 0 1043.84 283.84;" xml:space="preserve">
<style type="text/css">
	.st0{fill:#9BCC5E;}
	.st1{fill:#458D40;}
	.st2{fill:#FDFFF3;}
</style>
<g>
	<path class="st0" d="M214.33,231.33c-19.52,1.37-40.46,1.63-61.02-2.44c-14.71-2.91-28.13-7.95-39.34-16.64
		c-11.26-8.73-18.51-19.64-23-32.04c-3.14-8.68-4.68-17.69-6.48-26.65c-2.4-11.94-4.85-23.88-8.97-35.46
		c-3.33-9.34-8.15-18.01-15.99-25.16c-3.92-3.58-8.26-6.82-12.91-9.72c-1.65-1.03-1.67-1.01,0.23-1.93
		c12.47-6.07,25.79-10.16,39.59-13.07c12.45-2.62,25.06-4.23,37.82-4.3c30.8-0.16,59.02,6.47,83.6,22.04
		c24.71,15.65,39.65,36.81,45.67,62.72c4.95,21.31,2.87,42.56-3.55,63.73c-0.95,3.13-1.99,6.24-3.12,9.33
		c-0.48,1.32-0.07,2.21,1.01,3.07c3.48,2.78,7.69,4.68,11.64,6.89c0.32,0.18,0.66,0.33,0.98,0.51c2.88,1.57,3.55,3.08,2.55,5.7
		c-0.86,2.26-3.69,3.9-6.48,3.83c-1.41-0.03-2.38-0.66-3.32-1.44c-3.89-3.23-7.51-6.69-11.62-9.73c-1.7-1.26-3.48-1.79-5.83-1.44
		C229.18,230.11,222.51,230.63,214.33,231.33z"/>
	<path class="st1" d="M216.9,228.79c-18.06-0.07-37.37-1.44-56.07-7.47c-13.37-4.31-25.44-10.81-35.24-21.09
		c-9.84-10.33-15.87-22.69-19.26-36.43c-2.37-9.63-3.25-19.48-4.37-29.3c-1.49-13.09-3.03-26.18-6.13-39.02
		c-2.5-10.35-6.42-20.11-13.22-28.44c-3.4-4.17-7.2-8.02-11.31-11.52c-1.46-1.24-1.47-1.23,0.32-2.07
		c11.86-5.57,24.38-8.94,37.26-10.98c11.63-1.85,23.34-2.59,35.1-1.65c28.39,2.27,53.98,11.66,75.69,30.43
		c21.82,18.87,34.32,42.91,38.3,71.38c3.27,23.41,0.09,46.21-7.1,68.56c-1.06,3.3-2.21,6.58-3.43,9.83
		c-0.52,1.39-0.19,2.38,0.75,3.4c3.04,3.28,6.8,5.67,10.31,8.37c0.28,0.22,0.59,0.41,0.88,0.63c2.56,1.93,3.09,3.61,2,6.36
		c-0.93,2.37-3.63,3.92-6.2,3.62c-1.3-0.15-2.16-0.9-2.98-1.82c-3.39-3.8-6.52-7.82-10.12-11.43c-1.49-1.49-3.1-2.2-5.29-2.02
		C230.65,228.65,224.48,228.68,216.9,228.79z"/>
	<g>
		<path class="st0" d="M291.08,187.35V88.77h10.46v98.58H291.08z M297.81,187.35v-9.31h31.23c6.49,0,11.61-1.81,15.33-5.44
			c3.73-3.63,5.59-8.17,5.59-13.61c0-3.53-0.81-6.73-2.44-9.6c-1.63-2.87-3.94-5.13-6.95-6.81c-3.01-1.67-6.57-2.51-10.67-2.51
			h-32.09v-9.17h30.52c5.35,0,9.58-1.43,12.68-4.3c3.1-2.87,4.66-6.92,4.66-12.18c0-5.25-1.67-9.31-5.01-12.18
			c-3.34-2.87-7.83-4.3-13.47-4.3h-29.37v-9.17h29.66c6.11,0,11.32,1.1,15.62,3.3c4.3,2.2,7.54,5.16,9.74,8.88
			c2.2,3.73,3.3,7.93,3.3,12.61c0,5.54-1.43,10.29-4.3,14.26c-2.87,3.96-7.07,7-12.61,9.1l1-3.44c6.4,2.01,11.39,5.3,14.97,9.89
			c3.58,4.58,5.37,10.03,5.37,16.33c0,5.25-1.27,9.96-3.8,14.11c-2.53,4.16-6.21,7.45-11.03,9.89c-4.82,2.44-10.63,3.65-17.41,3.65
			H297.81z"/>
		<path class="st0" d="M383.2,105.39c-1.91,0-3.53-0.69-4.87-2.08c-1.34-1.38-2.01-3.03-2.01-4.94c0-2.01,0.67-3.68,2.01-5.01
			c1.34-1.34,2.96-2.01,4.87-2.01c2.1,0,3.8,0.67,5.09,2.01c1.29,1.34,1.93,3.01,1.93,5.01c0,1.91-0.64,3.56-1.93,4.94
			C387,104.7,385.3,105.39,383.2,105.39z M378.19,187.35V120h10.17v67.34H378.19z"/>
		<path class="st0" d="M408.71,187.35V85.9h10.03v101.44H408.71z"/>
		<path class="st0" d="M439.08,187.35V85.9h10.03v50.58l-2.01,16.19l2.01,16.62v18.05H439.08z M473.9,188.78
			c-5.16,0-9.79-1.05-13.9-3.15c-4.11-2.1-7.48-4.99-10.1-8.67c-2.63-3.68-4.23-7.95-4.8-12.82v-21.06
			c0.57-4.97,2.2-9.29,4.87-12.97c2.67-3.68,6.09-6.52,10.24-8.53c4.15-2.01,8.72-3.01,13.68-3.01c6.21,0,11.8,1.55,16.76,4.66
			c4.97,3.1,8.91,7.31,11.82,12.61c2.91,5.3,4.37,11.3,4.37,17.98c0,6.59-1.43,12.51-4.3,17.77c-2.87,5.25-6.81,9.43-11.82,12.54
			C485.72,187.23,480.11,188.78,473.9,188.78z M472.18,179.18c4.78,0,8.98-1.08,12.61-3.22c3.63-2.15,6.47-5.16,8.52-9.03
			c2.05-3.87,3.08-8.29,3.08-13.25c0-5.06-1.03-9.5-3.08-13.33c-2.06-3.82-4.9-6.83-8.52-9.03c-3.63-2.2-7.79-3.29-12.47-3.29
			c-4.68,0-8.81,1.1-12.39,3.29c-3.58,2.2-6.38,5.21-8.38,9.03c-2.01,3.82-3.01,8.26-3.01,13.33c0,4.97,1,9.38,3.01,13.25
			c2.01,3.87,4.77,6.88,8.31,9.03C463.39,178.1,467.5,179.18,472.18,179.18z"/>
		<path class="st0" d="M553.42,188.78c-6.5,0-12.39-1.58-17.7-4.73s-9.51-7.4-12.61-12.75c-3.11-5.35-4.66-11.32-4.66-17.91
			c0-6.5,1.55-12.37,4.66-17.62c3.1-5.25,7.31-9.43,12.61-12.54c5.3-3.1,11.2-4.66,17.7-4.66c6.59,0,12.51,1.53,17.77,4.58
			c5.25,3.06,9.43,7.24,12.54,12.54c3.1,5.3,4.66,11.2,4.66,17.7c0,6.69-1.55,12.68-4.66,17.98c-3.11,5.3-7.29,9.53-12.54,12.68
			C565.93,187.2,560.01,188.78,553.42,188.78z M553.42,179.04c4.78,0,9-1.1,12.68-3.29c3.68-2.2,6.59-5.25,8.74-9.17
			c2.15-3.92,3.22-8.31,3.22-13.18c0-4.87-1.07-9.19-3.22-12.97c-2.15-3.77-5.06-6.76-8.74-8.96c-3.68-2.2-7.9-3.3-12.68-3.3
			c-4.68,0-8.88,1.1-12.61,3.3c-3.72,2.2-6.64,5.18-8.74,8.96c-2.1,3.77-3.15,8.09-3.15,12.97c0,4.97,1.05,9.38,3.15,13.25
			c2.1,3.87,5.02,6.9,8.74,9.1C544.53,177.94,548.74,179.04,553.42,179.04z"/>
		<path class="st1" d="M651.56,188.92c-7.36,0-14.26-1.34-20.7-4.01c-6.45-2.67-12.06-6.38-16.83-11.1
			c-4.78-4.73-8.53-10.27-11.25-16.62c-2.72-6.35-4.08-13.2-4.08-20.56c0-7.35,1.38-14.18,4.16-20.49
			c2.77-6.3,6.61-11.82,11.53-16.55c4.92-4.73,10.67-8.4,17.26-11.03c6.59-2.63,13.66-3.94,21.21-3.94c8.69,0,16.6,1.58,23.71,4.73
			c7.11,3.15,13.01,7.5,17.7,13.04l-15.33,15.33c-3.25-4.2-7.07-7.35-11.46-9.46c-4.39-2.1-9.36-3.15-14.9-3.15
			c-5.92,0-11.23,1.31-15.9,3.94c-4.68,2.63-8.33,6.3-10.96,11.03c-2.63,4.73-3.94,10.24-3.94,16.55c0,6.3,1.29,11.84,3.87,16.62
			c2.58,4.78,6.11,8.5,10.6,11.18c4.49,2.67,9.65,4.01,15.47,4.01c5.92,0,10.96-1.12,15.12-3.37c4.16-2.24,7.35-5.49,9.6-9.74
			c2.24-4.25,3.37-9.43,3.37-15.54l14.9,10.03l-45.13-0.72v-19.06h53.16v3.29c0,12.13-2.17,22.33-6.52,30.59
			c-4.35,8.26-10.37,14.5-18.05,18.7C670.45,186.82,661.59,188.92,651.56,188.92z"/>
		<path class="st1" d="M714.32,187.35v-69.63h21.92v69.63H714.32z M736.24,149.09l-9.17-7.16c1.81-8.12,4.87-14.42,9.17-18.91
			c4.3-4.49,10.27-6.73,17.91-6.73c3.34,0,6.28,0.5,8.81,1.5c2.53,1,4.75,2.56,6.66,4.66l-13.04,16.48
			c-0.96-1.05-2.15-1.86-3.58-2.44c-1.43-0.57-3.06-0.86-4.87-0.86c-3.63,0-6.52,1.12-8.67,3.37
			C737.31,141.23,736.24,144.6,736.24,149.09z"/>
		<path class="st1" d="M807.88,188.92c-7.55,0-14.26-1.55-20.13-4.66c-5.87-3.1-10.48-7.43-13.83-12.97
			c-3.34-5.54-5.01-11.8-5.01-18.77c0-6.97,1.65-13.2,4.94-18.7c3.29-5.49,7.76-9.81,13.4-12.97c5.63-3.15,11.99-4.73,19.06-4.73
			c6.88,0,12.94,1.48,18.2,4.44c5.25,2.96,9.38,7.07,12.39,12.32c3.01,5.25,4.51,11.27,4.51,18.05c0,1.24-0.07,2.56-0.21,3.94
			c-0.14,1.39-0.41,2.99-0.79,4.8l-60.03,0.14v-15.04l50.72-0.14l-9.46,6.3c-0.1-4.01-0.72-7.33-1.86-9.96
			c-1.15-2.63-2.84-4.63-5.09-6.02c-2.25-1.38-4.99-2.08-8.24-2.08c-3.44,0-6.43,0.79-8.96,2.36c-2.53,1.58-4.49,3.8-5.87,6.66
			c-1.39,2.87-2.08,6.35-2.08,10.46c0,4.11,0.74,7.62,2.22,10.53c1.48,2.92,3.58,5.16,6.3,6.73c2.72,1.58,5.95,2.36,9.67,2.36
			c3.44,0,6.54-0.6,9.31-1.79c2.77-1.19,5.21-2.98,7.31-5.37l12.04,12.04c-3.44,4.01-7.59,7.02-12.47,9.03
			C819.05,187.92,813.7,188.92,807.88,188.92z"/>
		<path class="st1" d="M886.39,188.92c-7.55,0-14.26-1.55-20.13-4.66c-5.87-3.1-10.48-7.43-13.83-12.97
			c-3.34-5.54-5.01-11.8-5.01-18.77c0-6.97,1.65-13.2,4.94-18.7c3.29-5.49,7.76-9.81,13.4-12.97c5.63-3.15,11.99-4.73,19.06-4.73
			c6.88,0,12.94,1.48,18.2,4.44c5.25,2.96,9.38,7.07,12.39,12.32c3.01,5.25,4.51,11.27,4.51,18.05c0,1.24-0.07,2.56-0.21,3.94
			c-0.14,1.39-0.41,2.99-0.79,4.8l-60.03,0.14v-15.04l50.72-0.14l-9.46,6.3c-0.1-4.01-0.72-7.33-1.86-9.96
			c-1.15-2.63-2.84-4.63-5.09-6.02c-2.25-1.38-4.99-2.08-8.24-2.08c-3.44,0-6.43,0.79-8.96,2.36c-2.53,1.58-4.49,3.8-5.87,6.66
			c-1.39,2.87-2.08,6.35-2.08,10.46c0,4.11,0.74,7.62,2.22,10.53c1.48,2.92,3.58,5.16,6.3,6.73c2.72,1.58,5.95,2.36,9.67,2.36
			c3.44,0,6.54-0.6,9.31-1.79c2.77-1.19,5.21-2.98,7.31-5.37l12.04,12.04c-3.44,4.01-7.59,7.02-12.47,9.03
			C897.57,187.92,892.22,188.92,886.39,188.92z"/>
		<path class="st1" d="M930.52,187.35v-69.63h21.92v69.63H930.52z M976.51,187.35v-39.69c0-3.63-1.12-6.57-3.37-8.81
			c-2.25-2.24-5.09-3.37-8.52-3.37c-2.39,0-4.49,0.5-6.3,1.5c-1.82,1-3.25,2.44-4.3,4.3c-1.05,1.86-1.58,3.99-1.58,6.38l-8.45-4.16
			c0-5.44,1.19-10.22,3.58-14.33c2.39-4.11,5.71-7.28,9.96-9.53c4.25-2.24,9.05-3.37,14.4-3.37c5.16,0,9.72,1.22,13.68,3.65
			c3.96,2.44,7.09,5.66,9.38,9.67c2.29,4.01,3.44,8.41,3.44,13.18v44.56H976.51z"/>
	</g>
	<g>
		<path class="st2" d="M217.28,93.69c-2.73,5.52-5.46,11.04-8.19,16.57c-1.18,2.39-2.33,4.8-3.49,7.2
			c-0.33,0.68-0.66,1.25-1.61,1.02c-8.52-2.03-17.05-4.04-25.66-6.47c1.97-0.89,3.92-1.83,5.92-2.63c1.06-0.43,1.43-1.05,1.5-2.18
			c0.78-11.64-7.59-19.35-19.75-18.08c-10.64,1.11-18.62,6.83-25.25,14.79c-1.12,1.35-2.06,2.85-3.11,4.25
			c-0.31,0.42-0.42,1.18-1.44,0.9c6.16-14.97,14.61-27.74,31.46-31.86c12.3-3.01,23.42,0.4,33.3,8.09c3.52,2.74,6.48,6.03,8.8,9.86
			c0.65,1.07,1.24,1.23,2.32,0.63c1.59-0.88,3.25-1.61,4.89-2.4C217.07,93.47,217.17,93.58,217.28,93.69z"/>
		<path class="st2" d="M193.24,192.21c-5.26-7.89-10.18-15.26-15.09-22.63c-0.38-0.57-0.9-1.11-0.17-1.87
			c6.03-6.37,12.02-12.76,18.31-19.43c-0.19,2.65-0.29,4.88-0.55,7.1c-0.11,0.99,0.18,1.53,0.98,2.08c8.7,5.9,18.5,4.04,23.98-4.91
			c4.85-7.92,5.61-16.46,3.41-25.51c-0.95-3.89-2.13-7.6-3.8-11.2c-0.22-0.47-0.3-1.09-0.81-1.28c-0.65-0.24-0.64-0.65-0.32-1.02
			c0.54-0.61,0.75,0.11,0.98,0.39c2.27,2.7,4.28,5.58,6.08,8.61c5.27,8.85,8.25,18.29,6.86,28.69c-1.72,12.85-8.92,21.96-20,28.19
			c-5.65,3.18-11.77,4.87-18.27,4.98c-0.93,0.02-1.07,0.35-1.12,1.11C193.6,187.55,193.43,189.61,193.24,192.21z"/>
		<path class="st2" d="M156.02,145.98c-2.46-0.6-3.68-2.38-5.27-3.58c-1.24-0.94-2.16-0.92-3.47-0.2
			c-9.25,5.07-12.04,14.14-6.94,23.37c4.47,8.09,11.75,12.66,20.26,15.54c4.22,1.43,8.59,1.96,13.01,2.15
			c0.63,0.03,1.26,0.09,1.9,0.24c-3.72,0.92-7.51,1.23-11.31,1.39c-9.46,0.39-18.53-1.4-26.54-6.38c-6.55-4.07-11.4-10-14.2-17.35
			c-3.13-8.2-3.6-16.56-1.55-25.12c0.76-3.17,2.02-6.08,3.46-8.94c0.48-0.96,0.41-1.43-0.52-2.01c-1.64-1.02-3.19-2.18-5.21-3.59
			c4.44-0.29,8.35-0.55,12.27-0.8c4.74-0.31,9.48-0.56,14.22-0.94c1.48-0.12,2.13,0.27,2.57,1.78
			C151.01,129.6,153.49,137.61,156.02,145.98z"/>
	</g>
</g>
</svg>
