<?xml version="1.0" encoding="utf-8"?>
<!-- Generator: Adobe Illustrator 25.4.1, SVG Export Plug-In . SVG Version: 6.00 Build 0)  -->
<svg version="1.1" id="Capa_1" xmlns="http://www.w3.org/2000/svg" xmlns:xlink="http://www.w3.org/1999/xlink" x="0px" y="0px"
	 viewBox="0 0 1043.84 283.84" style="enable-background:new 0 0 1043.84 283.84;" xml:space="preserve">
<style type="text/css">
	.st0{fill:#FBFFDA;}
</style>
<g>
	<path class="st0" d="M325.45,134.17c3.15-1.91,5.71-4.19,7.65-6.86c2.91-4.01,4.37-8.69,4.37-14.04c0-4.58-1.12-8.79-3.37-12.61
		s-5.54-6.9-9.89-9.24c-4.35-2.34-9.77-3.51-16.26-3.51h-23.78h-4.44h-9.03v99.44h9.03h4.44h24.93c6.97,0,12.87-1.26,17.7-3.8
		c4.82-2.53,8.52-5.9,11.1-10.1c2.58-4.2,3.87-8.93,3.87-14.18c0-6.3-1.79-11.77-5.37-16.41
		C333.61,139.25,329.95,136.36,325.45,134.17z M284.17,99.66h23.5c4.87,0,8.79,1.27,11.75,3.8c2.96,2.53,4.44,6.19,4.44,10.96
		c0,4.78-1.41,8.43-4.23,10.96c-2.82,2.53-6.62,3.8-11.39,3.8h-24.07V99.66z M323.29,170.51c-3.25,3.39-7.74,5.09-13.47,5.09h-25.65
		v-34.67h26.08c3.63,0,6.81,0.77,9.53,2.29c2.72,1.53,4.8,3.61,6.23,6.23c1.43,2.63,2.15,5.57,2.15,8.81
		C328.16,163.04,326.53,167.12,323.29,170.51z"/>
	<rect x="357.81" y="119.29" class="st0" width="12.9" height="68.06"/>
	<path class="st0" d="M364.26,89.2c-2.39,0-4.35,0.79-5.87,2.36c-1.53,1.58-2.29,3.51-2.29,5.8c0,2.39,0.76,4.37,2.29,5.95
		c1.53,1.58,3.49,2.36,5.87,2.36c2.39,0,4.35-0.79,5.87-2.36c1.53-1.58,2.29-3.56,2.29-5.95c0-2.29-0.77-4.23-2.29-5.8
		C368.61,89.99,366.65,89.2,364.26,89.2z"/>
	<rect x="389.76" y="85.04" class="st0" width="12.9" height="102.3"/>
	<path class="st0" d="M474.23,122.58c-5.01-3.15-10.63-4.73-16.84-4.73c-5.06,0-9.67,1.07-13.83,3.22c-3.67,1.9-6.7,4.43-9.1,7.58
		V85.04h-12.9v102.3h12.9v-9.31c2.35,3.14,5.34,5.65,8.96,7.52c4.15,2.15,8.81,3.22,13.97,3.22c6.21,0,11.82-1.55,16.84-4.66
		c5.01-3.1,8.96-7.33,11.82-12.68c2.87-5.35,4.3-11.37,4.3-18.05c0-6.69-1.43-12.7-4.3-18.05
		C483.18,129.99,479.24,125.74,474.23,122.58z M474.3,165.35c-1.91,3.49-4.49,6.23-7.74,8.24s-7.02,3.01-11.32,3.01
		c-4.2,0-7.95-1-11.25-3.01s-5.83-4.75-7.59-8.24c-1.77-3.49-2.65-7.47-2.65-11.96c0-4.58,0.91-8.64,2.72-12.18
		c1.81-3.53,4.35-6.28,7.59-8.24c3.25-1.96,7.02-2.94,11.32-2.94c4.2,0,7.93,0.98,11.18,2.94c3.25,1.96,5.83,4.71,7.74,8.24
		c1.91,3.54,2.87,7.55,2.87,12.04C477.16,157.83,476.21,161.87,474.3,165.35z"/>
	<path class="st0" d="M554.03,122.51c-5.4-3.1-11.39-4.66-17.98-4.66c-6.69,0-12.71,1.58-18.05,4.73
		c-5.35,3.15-9.6,7.38-12.75,12.68c-3.15,5.3-4.73,11.25-4.73,17.84c0,6.69,1.58,12.73,4.73,18.12c3.15,5.4,7.4,9.67,12.75,12.82
		c5.35,3.15,11.37,4.73,18.05,4.73c6.59,0,12.58-1.58,17.98-4.73c5.39-3.15,9.67-7.43,12.82-12.82c3.15-5.4,4.73-11.44,4.73-18.12
		c0-6.59-1.58-12.56-4.73-17.91C563.7,129.84,559.42,125.61,554.03,122.51z M555.39,165.07c-1.91,3.49-4.54,6.23-7.88,8.24
		c-3.34,2.01-7.16,3.01-11.46,3.01c-4.3,0-8.12-1-11.46-3.01c-3.35-2.01-5.97-4.75-7.88-8.24c-1.91-3.49-2.87-7.47-2.87-11.96
		c0-4.39,0.95-8.31,2.87-11.75c1.91-3.44,4.54-6.14,7.88-8.1s7.16-2.94,11.46-2.94c4.3,0,8.1,0.98,11.39,2.94
		c3.3,1.96,5.92,4.66,7.88,8.1s2.94,7.36,2.94,11.75C558.26,157.59,557.3,161.58,555.39,165.07z"/>
	<path class="st0" d="M631.9,150.09l25.63,0.77c-0.2,0.47-0.41,0.93-0.63,1.38c-1.86,3.73-4.56,6.59-8.09,8.6
		c-3.54,2.01-7.88,3.01-13.04,3.01c-5.35,0-10.03-1.15-14.04-3.44c-4.01-2.29-7.14-5.52-9.38-9.67c-2.25-4.15-3.37-9-3.37-14.54
		c0-5.54,1.22-10.36,3.65-14.47c2.44-4.11,5.71-7.28,9.82-9.53c4.11-2.24,8.69-3.37,13.75-3.37c5.35,0,9.93,1,13.75,3.01
		s7.5,5.06,11.03,9.17l19.34-19.34c-4.68-5.54-10.77-9.93-18.27-13.18s-15.98-4.87-25.43-4.87c-7.83,0-15.19,1.31-22.07,3.94
		s-12.92,6.3-18.12,11.03c-5.21,4.73-9.27,10.29-12.18,16.69c-2.91,6.4-4.37,13.42-4.37,21.06c0,7.55,1.38,14.52,4.15,20.92
		c2.77,6.4,6.66,11.99,11.68,16.76c5.01,4.78,10.89,8.48,17.62,11.1c6.73,2.62,14.06,3.94,21.99,3.94c10.6,0,19.89-2.24,27.87-6.73
		c7.97-4.49,14.18-11.03,18.63-19.63c4.45-8.6,6.66-19.01,6.66-31.23v-4.3H631.9V150.09z"/>
	<path class="st0" d="M751.75,116.57c-2.34-0.76-5.14-1.15-8.38-1.15c-7.09,0-13,1.72-17.77,5.13v-3.7h-28.08v70.49h28.08v-38.11
		c0-3.15,0.72-5.56,2.15-7.24c1.43-1.67,3.58-2.51,6.45-2.51c1.72,0,3.22,0.26,4.51,0.79c1.29,0.53,2.27,1.17,2.94,1.93l15.76-22.35
		C755.98,118.43,754.09,117.33,751.75,116.57z"/>
	<path class="st0" d="M813.29,119.65c-5.64-3.01-12.13-4.51-19.49-4.51c-7.45,0-14.14,1.6-20.06,4.8
		c-5.92,3.2-10.58,7.57-13.97,13.11c-3.39,5.54-5.09,11.89-5.09,19.06c0,7.26,1.74,13.68,5.23,19.27
		c3.49,5.59,8.33,9.94,14.54,13.04c6.21,3.1,13.42,4.66,21.63,4.66c6.4,0,12.08-1,17.05-3.01c4.96-2.01,9.22-5.01,12.75-9.03
		l-14.04-13.9c-2.1,2.39-4.42,4.13-6.95,5.23c-2.53,1.1-5.47,1.65-8.81,1.65c-3.44,0-6.3-0.67-8.6-2.01
		c-2.29-1.34-4.04-3.32-5.23-5.95c-0.17-0.38-0.33-0.77-0.47-1.18l48.4-0.33c0.48-2.1,0.79-3.94,0.93-5.52s0.21-3.08,0.21-4.51
		c0-6.88-1.6-12.99-4.8-18.34C823.34,126.83,818.93,122.66,813.29,119.65z M781.73,143.67c0.13-0.39,0.25-0.8,0.4-1.17
		c1.09-2.67,2.7-4.73,4.8-6.16s4.58-2.15,7.45-2.15c2.77,0,5.06,0.62,6.88,1.86c1.81,1.24,3.17,3.08,4.08,5.52
		c0.22,0.59,0.41,1.23,0.58,1.9L781.73,143.67z"/>
	<path class="st0" d="M893.67,119.65c-5.64-3.01-12.13-4.51-19.49-4.51c-7.45,0-14.14,1.6-20.06,4.8
		c-5.92,3.2-10.58,7.57-13.97,13.11c-3.39,5.54-5.09,11.89-5.09,19.06c0,7.26,1.74,13.68,5.23,19.27
		c3.49,5.59,8.33,9.94,14.54,13.04c6.21,3.1,13.42,4.66,21.63,4.66c6.4,0,12.08-1,17.05-3.01c4.96-2.01,9.22-5.01,12.75-9.03
		l-14.04-13.9c-2.1,2.39-4.42,4.13-6.95,5.23c-2.53,1.1-5.47,1.65-8.81,1.65c-3.44,0-6.3-0.67-8.6-2.01
		c-2.29-1.34-4.04-3.32-5.23-5.95c-0.17-0.38-0.33-0.77-0.47-1.18l48.4-0.33c0.48-2.1,0.79-3.94,0.93-5.52s0.21-3.08,0.21-4.51
		c0-6.88-1.6-12.99-4.8-18.34C903.72,126.83,899.3,122.66,893.67,119.65z M862.1,143.67c0.13-0.39,0.25-0.8,0.4-1.17
		c1.1-2.67,2.7-4.73,4.8-6.16s4.58-2.15,7.45-2.15c2.77,0,5.06,0.62,6.88,1.86c1.81,1.24,3.17,3.08,4.08,5.52
		c0.22,0.59,0.41,1.23,0.58,1.9L862.1,143.67z"/>
	<path class="st0" d="M989.66,127.96c-2.29-3.87-5.42-6.92-9.38-9.17c-3.96-2.24-8.48-3.37-13.54-3.37c-5.64,0-10.67,1.1-15.12,3.3
		c-1.19,0.59-2.31,1.26-3.37,1.98v-3.85h-28.08v70.49h28.08V147.8c0-1.81,0.36-3.37,1.08-4.66c0.72-1.29,1.72-2.27,3.01-2.94
		c1.29-0.67,2.74-1,4.37-1c2.39,0,4.37,0.74,5.95,2.22c1.58,1.48,2.36,3.61,2.36,6.38v39.54h28.08v-45.99
		C993.1,136.29,991.96,131.83,989.66,127.96z"/>
	<path class="st0" d="M239.87,233.42c-0.29-0.22-0.6-0.41-0.88-0.63c-3.51-2.7-7.27-5.09-10.31-8.37c-0.94-1.02-1.27-2.01-0.75-3.4
		c1.22-3.25,2.37-6.53,3.43-9.83c7.19-22.35,10.37-45.15,7.1-68.56c-3.98-28.47-16.48-52.51-38.3-71.38
		c-21.71-18.77-47.3-28.16-75.69-30.43c-11.76-0.94-23.47-0.2-35.1,1.65c-12.88,2.04-25.4,5.41-37.26,10.98
		c-1.79,0.84-1.78,0.83-0.32,2.07c4.11,3.5,7.91,7.35,11.31,11.52c6.8,8.33,10.72,18.09,13.22,28.44
		c3.1,12.84,4.64,25.93,6.13,39.02c1.12,9.82,2,19.67,4.37,29.3c3.39,13.74,9.42,26.1,19.26,36.43
		c9.8,10.28,21.87,16.78,35.24,21.09c18.7,6.03,38.01,7.4,56.07,7.47c7.58-0.11,13.75-0.14,19.89-0.66c2.19-0.18,3.8,0.53,5.29,2.02
		c3.6,3.61,6.73,7.63,10.12,11.43c0.82,0.92,1.68,1.67,2.98,1.82c2.57,0.3,5.27-1.25,6.2-3.62
		C242.96,237.03,242.43,235.35,239.87,233.42z M148.14,77.19c12.3-3.01,23.42,0.4,33.3,8.09c3.52,2.75,6.49,6.03,8.8,9.86
		c0.65,1.07,1.24,1.23,2.32,0.63c1.59-0.88,3.26-1.61,4.89-2.4c0.11,0.1,0.21,0.21,0.31,0.32c-2.73,5.52-5.47,11.04-8.19,16.57
		c-1.18,2.39-2.33,4.8-3.49,7.2c-0.33,0.67-0.67,1.24-1.61,1.02c-8.52-2.03-17.05-4.04-25.66-6.47c1.97-0.88,3.92-1.82,5.92-2.63
		c1.05-0.42,1.42-1.05,1.5-2.18c0.79-11.64-7.59-19.35-19.75-18.08c-10.63,1.11-18.62,6.82-25.25,14.79
		c-1.12,1.34-2.06,2.84-3.11,4.25c-0.31,0.42-0.42,1.18-1.44,0.89C122.84,94.09,131.29,81.32,148.14,77.19z M144.66,184.88
		c-9.45,0.4-18.52-1.4-26.54-6.38c-6.55-4.07-11.4-10-14.2-17.35c-3.12-8.2-3.6-16.55-1.55-25.12c0.76-3.17,2.02-6.08,3.46-8.94
		c0.48-0.96,0.41-1.44-0.52-2.01c-1.64-1.02-3.18-2.18-5.21-3.59c4.44-0.29,8.35-0.55,12.27-0.8c4.74-0.31,9.49-0.56,14.22-0.94
		c1.49-0.12,2.13,0.27,2.57,1.78c2.34,8.06,4.81,16.07,7.34,24.44c-2.45-0.6-3.68-2.38-5.27-3.58c-1.24-0.94-2.16-0.92-3.47-0.2
		c-9.25,5.08-12.04,14.14-6.94,23.37c4.47,8.09,11.75,12.65,20.26,15.54c4.22,1.44,8.59,1.96,12.99,2.15
		c0.63,0.02,1.26,0.09,1.9,0.24C152.26,184.41,148.47,184.72,144.66,184.88z M213.61,151.2c-1.72,12.84-8.91,21.95-20,28.19
		c-5.65,3.18-11.77,4.87-18.27,4.98c-0.93,0.02-1.08,0.35-1.12,1.11c-0.12,2.05-0.29,4.11-0.48,6.71
		c-5.27-7.89-10.18-15.26-15.09-22.63c-0.38-0.57-0.9-1.1-0.17-1.87c6.03-6.36,12.03-12.75,18.31-19.43
		c-0.2,2.65-0.29,4.88-0.55,7.1c-0.12,1,0.18,1.53,0.98,2.08c8.69,5.9,18.5,4.04,23.98-4.91c4.86-7.93,5.61-16.46,3.41-25.51
		c-0.95-3.89-2.13-7.6-3.8-11.2c-0.21-0.47-0.29-1.09-0.81-1.28c-0.65-0.24-0.64-0.66-0.32-1.02c0.53-0.61,0.75,0.11,0.98,0.39
		c2.26,2.7,4.28,5.58,6.08,8.61C212.01,131.37,214.99,140.81,213.61,151.2z"/>
</g>
</svg>
