<?xml version="1.0" encoding="utf-8"?>
<!-- Generator: Adobe Illustrator 25.4.1, SVG Export Plug-In . SVG Version: 6.00 Build 0)  -->
<svg version="1.1" id="Capa_1" xmlns="http://www.w3.org/2000/svg" xmlns:xlink="http://www.w3.org/1999/xlink" x="0px" y="0px"
	 viewBox="0 0 1043.84 283.84" style="enable-background:new 0 0 1043.84 283.84;" xml:space="preserve">
<style type="text/css">
	.st0{fill:#4A4844;}
	.st1{fill:#19831F;}
	.st2{fill:#FFFFFF;}
</style>
<g>
	<g>
		<path class="st0" d="M325.45,134.17c3.15-1.91,5.71-4.19,7.65-6.86c2.91-4.01,4.37-8.69,4.37-14.04c0-4.58-1.12-8.79-3.37-12.61
			c-2.25-3.82-5.54-6.9-9.89-9.24c-4.35-2.34-9.77-3.51-16.26-3.51h-23.78h-4.44h-9.03v99.44h9.03h4.44h24.93
			c6.97,0,12.87-1.26,17.7-3.8c4.82-2.53,8.52-5.9,11.1-10.1c2.58-4.2,3.87-8.93,3.87-14.18c0-6.3-1.79-11.77-5.37-16.41
			C333.61,139.25,329.95,136.36,325.45,134.17z M307.67,99.66c4.87,0,8.79,1.27,11.75,3.8c2.96,2.53,4.44,6.19,4.44,10.96
			c0,4.78-1.41,8.43-4.23,10.96c-2.82,2.53-6.62,3.8-11.39,3.8h-24.07V99.66H307.67z M323.29,170.51
			c-3.25,3.39-7.74,5.09-13.47,5.09h-25.65v-34.67h26.08c3.63,0,6.81,0.77,9.53,2.29c2.72,1.53,4.8,3.61,6.23,6.23
			c1.43,2.63,2.15,5.57,2.15,8.81C328.16,163.04,326.53,167.12,323.29,170.51z"/>
		<rect x="357.81" y="119.29" class="st0" width="12.9" height="68.06"/>
		<path class="st0" d="M364.26,89.2c-2.39,0-4.35,0.79-5.87,2.36c-1.53,1.58-2.29,3.51-2.29,5.8c0,2.39,0.76,4.37,2.29,5.95
			c1.53,1.58,3.49,2.36,5.87,2.36c2.39,0,4.35-0.79,5.87-2.36c1.53-1.58,2.29-3.56,2.29-5.95c0-2.29-0.77-4.23-2.29-5.8
			C368.61,89.99,366.65,89.2,364.26,89.2z"/>
		<rect x="389.76" y="85.04" class="st0" width="12.9" height="102.3"/>
		<path class="st0" d="M474.23,122.58c-5.01-3.15-10.63-4.73-16.84-4.73c-5.06,0-9.67,1.07-13.83,3.22c-3.67,1.9-6.7,4.43-9.1,7.58
			V85.04h-12.9v102.3h12.9v-9.31c2.35,3.14,5.34,5.65,8.96,7.52c4.15,2.15,8.81,3.22,13.97,3.22c6.21,0,11.82-1.55,16.84-4.66
			c5.01-3.1,8.96-7.33,11.82-12.68c2.87-5.35,4.3-11.37,4.3-18.05c0-6.69-1.43-12.7-4.3-18.05
			C483.18,129.99,479.24,125.74,474.23,122.58z M474.3,165.35c-1.91,3.49-4.49,6.23-7.74,8.24c-3.25,2.01-7.02,3.01-11.32,3.01
			c-4.2,0-7.95-1-11.25-3.01s-5.83-4.75-7.59-8.24c-1.77-3.49-2.65-7.47-2.65-11.96c0-4.58,0.91-8.64,2.72-12.18
			c1.81-3.53,4.35-6.28,7.59-8.24c3.25-1.96,7.02-2.94,11.32-2.94c4.2,0,7.93,0.98,11.18,2.94c3.25,1.96,5.83,4.71,7.74,8.24
			c1.91,3.54,2.87,7.55,2.87,12.04C477.16,157.83,476.21,161.87,474.3,165.35z"/>
		<path class="st0" d="M566.85,135.19c-3.15-5.35-7.43-9.58-12.82-12.68c-5.4-3.1-11.39-4.66-17.98-4.66
			c-6.69,0-12.71,1.58-18.05,4.73c-5.35,3.15-9.6,7.38-12.75,12.68s-4.73,11.25-4.73,17.84c0,6.69,1.58,12.73,4.73,18.12
			c3.15,5.4,7.4,9.67,12.75,12.82c5.35,3.15,11.37,4.73,18.05,4.73c6.59,0,12.58-1.58,17.98-4.73c5.39-3.15,9.67-7.43,12.82-12.82
			c3.15-5.4,4.73-11.44,4.73-18.12C571.58,146.51,570,140.54,566.85,135.19z M555.39,165.07c-1.91,3.49-4.54,6.23-7.88,8.24
			c-3.34,2.01-7.16,3.01-11.46,3.01c-4.3,0-8.12-1-11.46-3.01c-3.35-2.01-5.97-4.75-7.88-8.24c-1.91-3.49-2.87-7.47-2.87-11.96
			c0-4.39,0.95-8.31,2.87-11.75c1.91-3.44,4.54-6.14,7.88-8.1c3.34-1.96,7.16-2.94,11.46-2.94c4.3,0,8.1,0.98,11.39,2.94
			c3.3,1.96,5.92,4.66,7.88,8.1c1.96,3.44,2.94,7.36,2.94,11.75C558.26,157.59,557.3,161.58,555.39,165.07z"/>
	</g>
	<g>
		<path class="st1" d="M631.9,150.09l25.63,0.77c-0.2,0.47-0.41,0.93-0.63,1.38c-1.86,3.73-4.56,6.59-8.09,8.6
			c-3.54,2.01-7.88,3.01-13.04,3.01c-5.35,0-10.03-1.15-14.04-3.44c-4.01-2.29-7.14-5.52-9.38-9.67c-2.25-4.15-3.37-9-3.37-14.54
			c0-5.54,1.22-10.36,3.65-14.47c2.44-4.11,5.71-7.28,9.82-9.53c4.11-2.24,8.69-3.37,13.75-3.37c5.35,0,9.93,1,13.75,3.01
			c3.82,2.01,7.5,5.06,11.03,9.17l19.34-19.34c-4.68-5.54-10.77-9.93-18.27-13.18c-7.5-3.25-15.98-4.87-25.43-4.87
			c-7.83,0-15.19,1.31-22.07,3.94c-6.88,2.63-12.92,6.3-18.12,11.03c-5.21,4.73-9.27,10.29-12.18,16.69
			c-2.91,6.4-4.37,13.42-4.37,21.06c0,7.55,1.38,14.52,4.15,20.92c2.77,6.4,6.66,11.99,11.68,16.76c5.01,4.78,10.89,8.48,17.62,11.1
			s14.06,3.94,21.99,3.94c10.6,0,19.89-2.24,27.87-6.73c7.97-4.49,14.18-11.03,18.63-19.63s6.66-19.01,6.66-31.23v-4.3H631.9V150.09
			z"/>
		<path class="st1" d="M751.75,116.57c-2.34-0.76-5.14-1.15-8.38-1.15c-7.09,0-13,1.72-17.77,5.13v-3.7h-28.08v70.49h28.08v-38.11
			c0-3.15,0.72-5.56,2.15-7.24c1.43-1.67,3.58-2.51,6.45-2.51c1.72,0,3.22,0.26,4.51,0.79c1.29,0.53,2.27,1.17,2.94,1.93
			l15.76-22.35C755.98,118.43,754.09,117.33,751.75,116.57z"/>
		<path class="st1" d="M813.29,119.65c-5.64-3.01-12.13-4.51-19.49-4.51c-7.45,0-14.14,1.6-20.06,4.8
			c-5.92,3.2-10.58,7.57-13.97,13.11c-3.39,5.54-5.09,11.89-5.09,19.06c0,7.26,1.74,13.68,5.23,19.27
			c3.49,5.59,8.33,9.94,14.54,13.04c6.21,3.1,13.42,4.66,21.63,4.66c6.4,0,12.08-1,17.05-3.01c4.96-2.01,9.22-5.01,12.75-9.03
			l-14.04-13.9c-2.1,2.39-4.42,4.13-6.95,5.23c-2.53,1.1-5.47,1.65-8.81,1.65c-3.44,0-6.3-0.67-8.6-2.01
			c-2.29-1.34-4.04-3.32-5.23-5.95c-0.17-0.38-0.33-0.77-0.47-1.18l48.4-0.33c0.48-2.1,0.79-3.94,0.93-5.52s0.21-3.08,0.21-4.51
			c0-6.88-1.6-12.99-4.8-18.34C823.34,126.83,818.93,122.66,813.29,119.65z M786.93,136.34c2.1-1.43,4.58-2.15,7.45-2.15
			c2.77,0,5.06,0.62,6.88,1.86c1.81,1.24,3.17,3.08,4.08,5.52c0.22,0.59,0.41,1.23,0.58,1.9l-24.19,0.2c0.13-0.39,0.25-0.8,0.4-1.17
			C783.22,139.83,784.83,137.77,786.93,136.34z"/>
		<path class="st1" d="M893.67,119.65c-5.64-3.01-12.13-4.51-19.49-4.51c-7.45,0-14.14,1.6-20.06,4.8
			c-5.92,3.2-10.58,7.57-13.97,13.11c-3.39,5.54-5.09,11.89-5.09,19.06c0,7.26,1.74,13.68,5.23,19.27
			c3.49,5.59,8.33,9.94,14.54,13.04c6.21,3.1,13.42,4.66,21.63,4.66c6.4,0,12.08-1,17.05-3.01c4.96-2.01,9.22-5.01,12.75-9.03
			l-14.04-13.9c-2.1,2.39-4.42,4.13-6.95,5.23c-2.53,1.1-5.47,1.65-8.81,1.65c-3.44,0-6.3-0.67-8.6-2.01
			c-2.29-1.34-4.04-3.32-5.23-5.95c-0.17-0.38-0.33-0.77-0.47-1.18l48.4-0.33c0.48-2.1,0.79-3.94,0.93-5.52s0.21-3.08,0.21-4.51
			c0-6.88-1.6-12.99-4.8-18.34C903.72,126.83,899.3,122.66,893.67,119.65z M867.3,136.34c2.1-1.43,4.58-2.15,7.45-2.15
			c2.77,0,5.06,0.62,6.88,1.86c1.81,1.24,3.17,3.08,4.08,5.52c0.22,0.59,0.41,1.23,0.58,1.9l-24.19,0.2c0.13-0.39,0.25-0.8,0.4-1.17
			C863.6,139.83,865.2,137.77,867.3,136.34z"/>
		<path class="st1" d="M989.66,127.96c-2.29-3.87-5.42-6.92-9.38-9.17c-3.96-2.24-8.48-3.37-13.54-3.37c-5.64,0-10.67,1.1-15.12,3.3
			c-1.19,0.59-2.31,1.26-3.37,1.98v-3.85h-28.08v70.49h28.08V147.8c0-1.81,0.36-3.37,1.08-4.66c0.72-1.29,1.72-2.27,3.01-2.94
			c1.29-0.67,2.74-1,4.37-1c2.39,0,4.37,0.74,5.95,2.22c1.58,1.48,2.36,3.61,2.36,6.38v39.54h28.08v-45.99
			C993.1,136.29,991.96,131.83,989.66,127.96z"/>
	</g>
	<g>
		<path class="st1" d="M197.39,228.79c-18.06-0.07-37.37-1.44-56.07-7.47c-13.37-4.31-25.44-10.81-35.24-21.09
			c-9.84-10.33-15.87-22.69-19.26-36.43c-2.37-9.63-3.25-19.48-4.37-29.3c-1.49-13.09-3.03-26.18-6.13-39.02
			c-2.5-10.35-6.42-20.11-13.22-28.44c-3.4-4.17-7.2-8.02-11.31-11.52c-1.46-1.24-1.47-1.23,0.32-2.07
			c11.86-5.57,24.38-8.94,37.26-10.98c11.63-1.85,23.34-2.59,35.1-1.65c28.39,2.27,53.98,11.66,75.69,30.43
			c21.82,18.87,34.32,42.91,38.3,71.38c3.27,23.41,0.09,46.21-7.1,68.56c-1.06,3.3-2.21,6.58-3.43,9.83
			c-0.52,1.39-0.19,2.38,0.75,3.4c3.04,3.28,6.8,5.67,10.31,8.37c0.28,0.22,0.59,0.41,0.88,0.63c2.56,1.93,3.09,3.61,2,6.36
			c-0.93,2.37-3.63,3.92-6.2,3.62c-1.3-0.15-2.16-0.9-2.98-1.82c-3.39-3.8-6.52-7.82-10.12-11.43c-1.49-1.49-3.1-2.2-5.29-2.02
			C211.14,228.65,204.97,228.68,197.39,228.79z"/>
		<g>
			<path class="st2" d="M118.12,108.16c1.05-1.41,1.99-2.91,3.11-4.25c6.63-7.97,14.62-13.68,25.25-14.79
				c12.16-1.27,20.54,6.44,19.75,18.08c-0.08,1.13-0.45,1.76-1.5,2.18c-2,0.81-3.95,1.75-5.92,2.63c8.61,2.43,17.14,4.44,25.66,6.47
				c0.94,0.22,1.28-0.35,1.61-1.02c1.16-2.4,2.31-4.81,3.49-7.2c2.72-5.53,5.46-11.05,8.19-16.57c-0.1-0.11-0.2-0.22-0.31-0.32
				c-1.63,0.79-3.3,1.52-4.89,2.4c-1.08,0.6-1.67,0.44-2.32-0.63c-2.31-3.83-5.28-7.11-8.8-9.86c-9.88-7.69-21-11.1-33.3-8.09
				c-16.85,4.13-25.3,16.9-31.46,31.86C117.7,109.34,117.81,108.58,118.12,108.16z"/>
			<path class="st2" d="M206.74,122.52c-1.8-3.03-3.82-5.91-6.08-8.61c-0.23-0.28-0.45-1-0.98-0.39c-0.32,0.36-0.33,0.78,0.32,1.02
				c0.52,0.19,0.6,0.81,0.81,1.28c1.67,3.6,2.85,7.31,3.8,11.2c2.2,9.05,1.45,17.58-3.41,25.51c-5.48,8.95-15.29,10.81-23.98,4.91
				c-0.8-0.55-1.1-1.08-0.98-2.08c0.26-2.22,0.35-4.45,0.55-7.1c-6.28,6.68-12.28,13.07-18.31,19.43c-0.73,0.77-0.21,1.3,0.17,1.87
				c4.91,7.37,9.82,14.74,15.09,22.63c0.19-2.6,0.36-4.66,0.48-6.71c0.04-0.76,0.19-1.09,1.12-1.11c6.5-0.11,12.62-1.8,18.27-4.98
				c11.09-6.24,18.28-15.35,20-28.19C214.99,140.81,212.01,131.37,206.74,122.52z"/>
			<path class="st2" d="M141.08,181.1c-8.51-2.89-15.79-7.45-20.26-15.54c-5.1-9.23-2.31-18.29,6.94-23.37
				c1.31-0.72,2.23-0.74,3.47,0.2c1.59,1.2,2.82,2.98,5.27,3.58c-2.53-8.37-5-16.38-7.34-24.44c-0.44-1.51-1.08-1.9-2.57-1.78
				c-4.73,0.38-9.48,0.63-14.22,0.94c-3.92,0.25-7.83,0.51-12.27,0.8c2.03,1.41,3.57,2.57,5.21,3.59c0.93,0.57,1,1.05,0.52,2.01
				c-1.44,2.86-2.7,5.77-3.46,8.94c-2.05,8.57-1.57,16.92,1.55,25.12c2.8,7.35,7.65,13.28,14.2,17.35
				c8.02,4.98,17.09,6.78,26.54,6.38c3.81-0.16,7.6-0.47,11.31-1.39c-0.64-0.15-1.27-0.22-1.9-0.24
				C149.67,183.06,145.3,182.54,141.08,181.1z"/>
		</g>
	</g>
</g>
</svg>
